<?xml version="1.0" encoding="utf-8"?>
<!-- Generator: Adobe Illustrator 25.1.0, SVG Export Plug-In . SVG Version: 6.00 Build 0)  -->
<svg version="1.1" id="Layer_1" xmlns="http://www.w3.org/2000/svg" xmlns:xlink="http://www.w3.org/1999/xlink" x="0px" y="0px"
	 viewBox="0 0 278.6 80.7" style="enable-background:new 0 0 278.6 80.7;" xml:space="preserve">
<style type="text/css">
	.st0{fill-rule:evenodd;clip-rule:evenodd;fill:#FFFFFF;}
</style>
<g>
	<g>
		<path class="st0" d="M264.1,65.2v7.1h-43v-7.1l21.4-21.4L264.1,65.2z M278.6,33.9h-26.1L269.3,17l-6.1-5.9l-20.8,20.8l-20.9-21.2
			l-5.9,6.1l17.2,17.1h-26.1v7.9h26l-20,19.8v19.1h59.9V61.6l-20-19.8h26.1L278.6,33.9L278.6,33.9z"/>
		<path class="st0" d="M251.1,8.5c0,4.7-3.8,8.5-8.5,8.5s-8.5-3.8-8.5-8.5s3.8-8.5,8.5-8.5S251.1,3.8,251.1,8.5"/>
		<path class="st0" d="M172.3,45.8c11.2,0,17.2,6.4,17.2,17.6c0,10.9-6,17.6-17.2,17.6s-17.2-6.7-17.2-17.6
			C155.1,52.2,161.1,45.8,172.3,45.8 M172.3,74.3c5.6,0,7.5-5.2,7.5-10.9c0-6-1.9-10.9-7.5-10.9s-7.9,4.9-7.9,10.9
			C164.5,69,166.7,74.3,172.3,74.3"/>
		<path class="st0" d="M138.6,45.8c3.4,0,6.7,0.7,10.1,1.5l-0.8,7.5c-3-1.5-6-2.3-9-2.3c-6.4,0-10.9,4.5-10.9,10.9
			c0,6.7,4.9,10.9,11.6,10.9c3,0,6-0.8,8.6-1.9l0.4,7.1C146,80.2,143,81,138.5,81c-9.4,0-19.9-4.5-19.9-17.6
			C118.7,51.4,127.4,45.8,138.6,45.8"/>
		<polygon class="st0" points="87.3,46.2 111.3,46.2 111.3,52.6 95.9,52.6 95.9,59.7 110.1,59.7 110.1,66.4 95.9,66.4 95.9,73.9 
			111.6,73.9 111.6,80.6 87.3,80.6 		"/>
		<polygon class="st0" points="31.8,46.2 41.2,46.2 45.3,72.4 45.7,72.4 50.2,46.2 61.8,46.2 66.7,72.4 71.2,46.2 80.2,46.2 
			72.3,80.6 60.7,80.6 55.8,54 51.3,80.6 39.3,80.6 		"/>
		<path class="st0" d="M15,45.8c3.4,0,6.4,0.4,9,1.1L23.2,54c-2.2-1.1-4.9-1.5-7.5-1.5c-2.2,0-6.4,0-6.4,3c0,5.6,16.5,1.9,16.5,14.2
			c0,9-7.5,11.2-15.4,11.2c-3,0-7.1-0.4-10.1-1.5L1.1,72c2.6,1.1,5.6,2.2,9.4,2.2c3,0,5.6-0.8,5.6-3.4C16.1,64.5,0,68.7,0,56.3
			C0,48.1,8.2,45.8,15,45.8"/>
	</g>
</g>
</svg>
